<?xml version="1.0" encoding="UTF-8"?>
<!DOCTYPE svg PUBLIC "-//W3C//DTD SVG 1.1//EN" "http://www.w3.org/Graphics/SVG/1.1/DTD/svg11.dtd">
<svg version="1.2" width="59.56mm" height="32.56mm" viewBox="-507 73 5956 3256" preserveAspectRatio="xMidYMid" fill-rule="evenodd" stroke-width="28.222" stroke-linejoin="round" xmlns="http://www.w3.org/2000/svg" xmlns:ooo="http://xml.openoffice.org/svg/export" xmlns:xlink="http://www.w3.org/1999/xlink" xmlns:presentation="http://sun.com/xmlns/staroffice/presentation" xmlns:smil="http://www.w3.org/2001/SMIL20/" xmlns:anim="urn:oasis:names:tc:opendocument:xmlns:animation:1.0" xml:space="preserve">
 <defs class="EmbeddedBulletChars">
  <g id="bullet-char-template-57356" transform="scale(0.00048828125,-0.00048828125)">
   <path d="M 580,1141 L 1163,571 580,0 -4,571 580,1141 Z"/>
  </g>
  <g id="bullet-char-template-57354" transform="scale(0.00048828125,-0.00048828125)">
   <path d="M 8,1128 L 1137,1128 1137,0 8,0 8,1128 Z"/>
  </g>
  <g id="bullet-char-template-10146" transform="scale(0.00048828125,-0.00048828125)">
   <path d="M 174,0 L 602,739 174,1481 1456,739 174,0 Z M 1358,739 L 309,1346 659,739 1358,739 Z"/>
  </g>
  <g id="bullet-char-template-10132" transform="scale(0.00048828125,-0.00048828125)">
   <path d="M 2015,739 L 1276,0 717,0 1260,543 174,543 174,936 1260,936 717,1481 1274,1481 2015,739 Z"/>
  </g>
  <g id="bullet-char-template-10007" transform="scale(0.00048828125,-0.00048828125)">
   <path d="M 0,-2 C -7,14 -16,27 -25,37 L 356,567 C 262,823 215,952 215,954 215,979 228,992 255,992 264,992 276,990 289,987 310,991 331,999 354,1012 L 381,999 492,748 772,1049 836,1024 860,1049 C 881,1039 901,1025 922,1006 886,937 835,863 770,784 769,783 710,716 594,584 L 774,223 C 774,196 753,168 711,139 L 727,119 C 717,90 699,76 672,76 641,76 570,178 457,381 L 164,-76 C 142,-110 111,-127 72,-127 30,-127 9,-110 8,-76 1,-67 -2,-52 -2,-32 -2,-23 -1,-13 0,-2 Z"/>
  </g>
  <g id="bullet-char-template-10004" transform="scale(0.00048828125,-0.00048828125)">
   <path d="M 285,-33 C 182,-33 111,30 74,156 52,228 41,333 41,471 41,549 55,616 82,672 116,743 169,778 240,778 293,778 328,747 346,684 L 369,508 C 377,444 397,411 428,410 L 1163,1116 C 1174,1127 1196,1133 1229,1133 1271,1133 1292,1118 1292,1087 L 1292,965 C 1292,929 1282,901 1262,881 L 442,47 C 390,-6 338,-33 285,-33 Z"/>
  </g>
  <g id="bullet-char-template-9679" transform="scale(0.00048828125,-0.00048828125)">
   <path d="M 813,0 C 632,0 489,54 383,161 276,268 223,411 223,592 223,773 276,916 383,1023 489,1130 632,1184 813,1184 992,1184 1136,1130 1245,1023 1353,916 1407,772 1407,592 1407,412 1353,268 1245,161 1136,54 992,0 813,0 Z"/>
  </g>
  <g id="bullet-char-template-8226" transform="scale(0.00048828125,-0.00048828125)">
   <path d="M 346,457 C 273,457 209,483 155,535 101,586 74,649 74,723 74,796 101,859 155,911 209,963 273,989 346,989 419,989 480,963 531,910 582,859 608,796 608,723 608,648 583,586 532,535 482,483 420,457 346,457 Z"/>
  </g>
  <g id="bullet-char-template-8211" transform="scale(0.00048828125,-0.00048828125)">
   <path d="M -4,459 L 1135,459 1135,606 -4,606 -4,459 Z"/>
  </g>
  <g id="bullet-char-template-61548" transform="scale(0.00048828125,-0.00048828125)">
   <path d="M 173,740 C 173,903 231,1043 346,1159 462,1274 601,1332 765,1332 928,1332 1067,1274 1183,1159 1299,1043 1357,903 1357,740 1357,577 1299,437 1183,322 1067,206 928,148 765,148 601,148 462,206 346,322 231,437 173,577 173,740 Z"/>
  </g>
 </defs>
 <g class="Page">
  <g class="com.sun.star.drawing.CustomShape">
   <g id="id3">
    <rect class="BoundingBox" stroke="none" fill="none" x="-507" y="73" width="5956" height="3256"/>
    <path fill="rgb(255,255,255)" stroke="none" d="M 5421,1700 C 5421,1981 5285,2257 5026,2501 4767,2744 4394,2946 3946,3087 3497,3227 2988,3301 2471,3301 1953,3301 1444,3227 995,3087 547,2946 174,2744 -85,2501 -344,2257 -480,1981 -480,1701 -480,1420 -344,1144 -85,900 174,657 547,455 995,314 1444,174 1953,100 2470,100 2988,100 3497,174 3946,314 4394,455 4767,657 5026,900 5285,1144 5421,1420 5421,1700 L 5421,1700 Z"/>
    <path fill="none" stroke="rgb(25,25,112)" stroke-width="53" stroke-linejoin="round" d="M 5421,1700 C 5421,1981 5285,2257 5026,2501 4767,2744 4394,2946 3946,3087 3497,3227 2988,3301 2471,3301 1953,3301 1444,3227 995,3087 547,2946 174,2744 -85,2501 -344,2257 -480,1981 -480,1701 -480,1420 -344,1144 -85,900 174,657 547,455 995,314 1444,174 1953,100 2470,100 2988,100 3497,174 3946,314 4394,455 4767,657 5026,900 5285,1144 5421,1420 5421,1700 L 5421,1700 Z"/>
   </g>
  </g>
  <g class="com.sun.star.drawing.ClosedBezierShape">
   <g id="id4">
    <rect class="BoundingBox" stroke="none" fill="none" x="130" y="299" width="2462" height="2482"/>
    <path fill="rgb(25,25,112)" stroke="none" d="M 1217,300 C 1674,513 2132,727 2590,940 2549,1028 2507,1116 2466,1205 2114,1041 1762,877 1411,712 1303,942 1197,1171 1090,1400 1409,1549 1728,1698 2047,1846 2006,1935 1964,2023 1924,2112 1605,1963 1285,1815 966,1666 793,2036 621,2408 447,2779 341,2729 236,2680 130,2631 493,1854 854,1077 1217,300 Z"/>
   </g>
  </g>
  <g class="com.sun.star.drawing.ClosedBezierShape">
   <g id="id5">
    <rect class="BoundingBox" stroke="none" fill="none" x="2339" y="300" width="2462" height="2481"/>
    <path fill="rgb(25,25,112)" stroke="none" d="M 3712,300 C 3255,513 2797,727 2340,940 2381,1029 2423,1117 2463,1206 2816,1042 3168,878 3519,713 3626,942 3733,1171 3840,1400 3520,1549 3201,1698 2882,1847 2923,1936 2965,2024 3006,2113 3326,1964 3645,1815 3963,1666 4136,2037 4310,2408 4483,2780 4589,2730 4694,2681 4800,2632 4437,1854 4075,1078 3712,300 Z"/>
   </g>
  </g>
 </g>
</svg>